<svg width="260" height="260" viewBox="0 0 260 260" xmlns="http://www.w3.org/2000/svg">
    <rect x="0" y="0" width="260" height="260" fill="#181818" />
	<g id="svgGroup" stroke-linecap="round" fill-rule="evenodd" font-size="9pt" stroke="#000000" stroke-width="0" fill="#FFFFFF" style="stroke:#000000;stroke-width:0;fill:#FFFFFF" transform="translate(4, 40)">
		<path transform="translate(7, -2)" d="M 18.115 44.092 L 18.115 68.799 L 0 68.799 L 0 1.709 L 45.41 1.709 Q 52.734 1.709 57.837 3.223 Q 62.939 4.736 66.138 7.52 Q 69.336 10.303 70.776 14.233 Q 72.217 18.164 72.217 22.998 Q 72.217 27.246 71.021 30.42 Q 69.824 33.594 67.798 35.864 Q 65.771 38.135 63.086 39.697 Q 60.4 41.26 57.422 42.285 L 79.395 68.799 L 58.203 68.799 L 37.891 44.092 L 18.115 44.092 Z M 42.92 15.723 Q 46.094 15.723 48.218 16.113 Q 50.342 16.504 51.611 17.358 Q 52.881 18.213 53.394 19.58 Q 53.906 20.947 53.906 22.9 Q 53.906 24.854 53.394 26.221 Q 52.881 27.588 51.611 28.442 Q 50.342 29.297 48.218 29.688 Q 46.094 30.078 42.92 30.078 L 18.115 30.078 L 18.115 15.723 L 42.92 15.723 Z" id="0" vector-effect="non-scaling-stroke"/>
		<path transform="translate(0, 18)" d="M 160.986 68.799 L 92.383 68.799 L 92.383 1.709 L 160.303 1.709 L 160.303 16.016 L 110.986 16.016 L 110.986 27.1 L 157.764 27.1 L 157.764 41.406 L 110.986 41.406 L 110.986 54.492 L 160.986 54.492 L 160.986 68.799 Z" id="1" vector-effect="non-scaling-stroke"/>
		<path transform="translate(-7, -2)" d="M 252.393 6.397 L 252.393 22.705 Q 249.609 21.191 246.533 19.702 Q 243.457 18.213 239.746 17.017 Q 236.035 15.82 231.592 15.064 Q 227.148 14.307 221.582 14.307 Q 213.037 14.307 207.397 16.065 Q 201.758 17.822 198.389 20.752 Q 195.02 23.682 193.652 27.466 Q 192.285 31.25 192.285 35.303 Q 192.285 37.988 192.871 40.601 Q 193.457 43.213 194.824 45.532 Q 196.191 47.852 198.389 49.805 Q 200.586 51.758 203.857 53.174 Q 207.129 54.59 211.499 55.396 Q 215.869 56.201 221.582 56.201 Q 227.148 56.201 231.592 55.493 Q 236.035 54.785 239.746 53.613 Q 243.457 52.441 246.533 50.952 Q 249.609 49.463 252.393 47.9 L 252.393 64.209 Q 248.877 65.674 245.313 66.846 Q 241.748 68.018 237.939 68.872 Q 234.131 69.727 229.907 70.166 Q 225.684 70.606 220.85 70.606 Q 210.596 70.606 201.978 68.408 Q 193.359 66.211 187.134 61.792 Q 180.908 57.373 177.441 50.757 Q 173.975 44.141 173.975 35.303 Q 173.975 26.465 177.441 19.849 Q 180.908 13.232 187.134 8.814 Q 193.359 4.395 201.978 2.197 Q 210.596 0 220.85 0 Q 225.684 0 229.907 0.44 Q 234.131 0.879 237.939 1.733 Q 241.748 2.588 245.313 3.76 Q 248.877 4.932 252.393 6.397 Z" id="2" vector-effect="non-scaling-stroke"/>
		<path transform="translate(13, -7)" d="M 111.523 106.397 L 111.523 122.705 Q 108.74 121.191 105.664 119.702 Q 102.588 118.213 98.877 117.017 Q 95.166 115.82 90.723 115.064 Q 86.279 114.307 80.713 114.307 Q 72.168 114.307 66.528 116.065 Q 60.889 117.822 57.52 120.752 Q 54.15 123.682 52.783 127.466 Q 51.416 131.25 51.416 135.303 Q 51.416 137.988 52.002 140.601 Q 52.588 143.213 53.955 145.532 Q 55.322 147.852 57.52 149.805 Q 59.717 151.758 62.988 153.174 Q 66.26 154.59 70.63 155.396 Q 75 156.201 80.713 156.201 Q 86.279 156.201 90.723 155.493 Q 95.166 154.785 98.877 153.613 Q 102.588 152.441 105.664 150.952 Q 108.74 149.463 111.523 147.9 L 111.523 164.209 Q 108.008 165.674 104.443 166.846 Q 100.879 168.018 97.07 168.872 Q 93.262 169.727 89.038 170.166 Q 84.814 170.606 79.98 170.606 Q 69.727 170.606 61.108 168.408 Q 52.49 166.211 46.265 161.792 Q 40.039 157.373 36.572 150.757 Q 33.105 144.141 33.105 135.303 Q 33.105 126.465 36.572 119.849 Q 40.039 113.232 46.265 108.814 Q 52.49 104.395 61.108 102.197 Q 69.727 100 79.98 100 Q 84.814 100 89.038 100.44 Q 93.262 100.879 97.07 101.733 Q 100.879 102.588 104.443 103.76 Q 108.008 104.932 111.523 106.397 Z" id="4" vector-effect="non-scaling-stroke"/>
		<path transform="translate(8, 13)" d="M 190.234 105.078 L 190.234 120.606 Q 188.33 119.678 185.205 118.506 Q 182.08 117.334 178.125 116.284 Q 174.17 115.234 169.531 114.526 Q 164.893 113.818 160.01 113.818 Q 156.104 113.818 153.345 114.063 Q 150.586 114.307 148.706 114.697 Q 146.826 115.088 145.728 115.601 Q 144.629 116.113 144.043 116.65 Q 143.457 117.188 143.286 117.725 Q 143.115 118.262 143.115 118.701 Q 143.115 120.166 144.58 121.265 Q 146.045 122.363 148.584 123.218 Q 151.123 124.072 154.492 124.829 Q 157.861 125.586 161.646 126.392 Q 165.43 127.197 169.458 128.149 Q 173.486 129.102 177.271 130.371 Q 181.055 131.641 184.424 133.325 Q 187.793 135.01 190.332 137.256 Q 192.871 139.502 194.336 142.432 Q 195.801 145.361 195.801 149.121 Q 195.801 153.955 194.092 157.422 Q 192.383 160.889 189.526 163.281 Q 186.67 165.674 182.91 167.114 Q 179.15 168.555 175.024 169.336 Q 170.898 170.117 166.675 170.361 Q 162.451 170.606 158.643 170.606 Q 148.682 170.606 140.21 168.97 Q 131.738 167.334 125.244 164.893 L 125.244 148.877 Q 131.934 152.588 140.503 154.688 Q 149.072 156.787 158.838 156.787 Q 164.6 156.787 168.237 156.177 Q 171.875 155.566 173.926 154.614 Q 175.977 153.662 176.709 152.539 Q 177.441 151.416 177.441 150.391 Q 177.441 148.779 175.977 147.583 Q 174.512 146.387 171.973 145.483 Q 169.434 144.58 166.064 143.823 Q 162.695 143.066 158.911 142.31 Q 155.127 141.553 151.123 140.674 Q 147.119 139.795 143.335 138.599 Q 139.551 137.402 136.182 135.815 Q 132.813 134.229 130.273 132.056 Q 127.734 129.883 126.27 127.026 Q 124.805 124.17 124.805 120.41 Q 124.805 115.967 126.367 112.744 Q 127.93 109.522 130.591 107.251 Q 133.252 104.981 136.743 103.565 Q 140.234 102.149 144.092 101.367 Q 147.949 100.586 151.904 100.293 Q 155.859 100 159.424 100 Q 163.33 100 167.456 100.391 Q 171.582 100.781 175.586 101.489 Q 179.59 102.197 183.325 103.125 Q 187.061 104.053 190.234 105.078 Z" id="5" vector-effect="non-scaling-stroke"/>
	</g>
</svg>